<?xml version="1.0" standalone="no"?>
<!DOCTYPE svg PUBLIC "-//W3C//DTD SVG 20010904//EN"
 "http://www.w3.org/TR/2001/REC-SVG-20010904/DTD/svg10.dtd">
<svg version="1.0" xmlns="http://www.w3.org/2000/svg"
 width="499.000000pt" height="499.000000pt" viewBox="0 0 499.000000 499.000000"
 preserveAspectRatio="xMidYMid meet">

<g transform="translate(0.000000,499.000000) scale(0.100000,-0.100000)"
fill="#000000" stroke="none">
<path d="M2325 4964 c-644 -64 -1143 -293 -1576 -724 -242 -240 -424 -515
-553 -837 -242 -602 -231 -1301 29 -1898 235 -540 648 -973 1180 -1236 247
-122 492 -195 800 -240 118 -17 463 -17 585 0 350 48 648 147 928 306 351 201
626 456 844 785 226 340 358 712 403 1134 31 297 11 544 -70 861 -207 812
-836 1477 -1641 1735 -133 42 -236 66 -400 89 -132 19 -441 34 -529 25z m390
-64 c574 -54 1084 -292 1495 -700 345 -342 594 -820 674 -1296 41 -245 46
-550 11 -769 -138 -880 -717 -1594 -1550 -1912 -433 -165 -957 -197 -1415 -86
-842 204 -1520 853 -1759 1686 -124 433 -122 922 5 1347 245 823 899 1453
1729 1665 112 29 271 56 395 68 81 8 313 6 415 -3z"/>
<path d="M2200 4825 c-405 -54 -789 -211 -1113 -452 -133 -100 -374 -341 -469
-469 -419 -565 -565 -1256 -412 -1942 133 -594 516 -1131 1045 -1467 252 -160
551 -273 859 -326 158 -27 480 -37 631 -20 809 92 1509 577 1864 1290 167 336
245 673 245 1055 0 371 -78 700 -245 1041 -114 231 -230 396 -415 589 -352
367 -821 610 -1330 691 -145 23 -520 29 -660 10z m194 -94 c11 -17 -23 -32
-88 -38 -62 -6 -66 -5 -66 15 0 15 8 22 28 25 52 8 121 7 126 -2z m317 -17
c11 -10 19 -12 24 -5 9 16 51 13 86 -5 30 -15 31 -18 24 -62 -3 -26 -8 -78
-11 -116 l-6 -69 -74 7 c-102 8 -118 18 -110 66 3 21 9 47 13 57 3 10 2 15 -3
10 -5 -5 -14 -32 -19 -60 -7 -35 -15 -52 -25 -52 -23 0 -22 157 2 214 17 41
20 43 50 37 17 -3 39 -13 49 -22z m-499 -24 c-10 -16 -9 -21 6 -29 14 -8 15
-13 5 -30 -9 -14 -10 -28 -3 -46 6 -15 10 -49 10 -76 0 -41 -3 -49 -19 -49
-21 0 -31 19 -31 57 0 14 -8 38 -17 54 -14 24 -15 33 -5 49 10 17 10 20 -3 20
-25 0 -17 29 16 62 23 23 33 28 42 19 9 -9 9 -16 -1 -31z m194 -31 c3 -6 1
-16 -5 -22 -6 -6 -11 -42 -11 -79 0 -73 -3 -77 -55 -81 -21 -1 -30 3 -33 16
-2 12 3 17 17 17 17 0 21 6 21 34 0 57 -8 66 -56 66 -37 0 -44 3 -44 19 0 16
10 21 58 26 31 4 62 8 67 10 20 7 34 5 41 -6z m-486 -13 c0 -7 9 -20 20 -27
33 -23 35 -61 5 -93 -31 -33 -28 -41 9 -25 20 9 29 10 38 1 17 -17 -7 -40 -48
-48 -28 -5 -36 -12 -41 -36 -6 -32 -33 -51 -57 -42 -19 7 -20 16 -3 33 10 11
7 12 -13 5 -36 -12 -83 -11 -87 2 -2 6 20 20 48 30 29 11 55 25 57 33 3 10 0
12 -14 7 -11 -5 -35 -10 -55 -13 -31 -5 -39 -2 -52 18 -15 23 -16 103 -2 117
3 3 19 1 35 -5 26 -10 29 -9 34 13 7 27 40 33 50 9 8 -21 26 -19 26 3 0 10 3
22 7 25 12 12 43 7 43 -7z m1202 -18 c11 -5 25 -4 38 4 18 11 23 10 38 -10 10
-13 36 -29 57 -36 37 -13 62 -46 35 -46 -18 0 -110 -70 -110 -83 0 -7 10 -31
22 -54 12 -23 19 -45 16 -48 -14 -14 -50 8 -73 46 -23 35 -27 38 -51 29 -33
-13 -91 -13 -99 0 -11 17 15 40 45 40 56 0 60 7 39 53 -10 23 -19 51 -19 63 0
11 -5 25 -11 31 -29 29 22 37 73 11z m477 -178 c56 -28 104 -57 107 -64 6 -15
-53 -126 -66 -126 -5 0 -12 5 -15 10 -3 6 -12 10 -18 10 -7 0 -4 -7 6 -14 19
-15 23 -41 6 -52 -6 -3 -16 -1 -22 5 -23 23 -29 10 -7 -14 18 -19 21 -28 13
-36 -9 -9 -40 4 -119 47 -59 33 -110 65 -112 71 -2 7 8 17 22 23 25 9 38 37
33 75 -1 14 5 21 20 23 24 4 38 33 34 70 -1 12 2 22 7 22 5 0 55 -23 111 -50z
m-2052 4 c2 -6 -15 -23 -37 -38 -22 -15 -38 -31 -35 -36 3 -4 37 -20 75 -35
53 -20 70 -31 70 -46 0 -26 -31 -24 -103 5 l-57 24 -6 -27 c-25 -124 -42 -153
-64 -111 -8 16 -9 30 -1 52 6 17 11 48 11 69 l0 39 -34 -17 c-35 -16 -71 -12
-64 9 2 6 21 20 42 31 31 16 36 24 32 43 -8 32 25 51 48 28 15 -14 19 -14 49
5 34 21 68 23 74 5z m1134 -134 c559 -57 1049 -355 1361 -829 233 -353 338
-808 283 -1223 -50 -382 -203 -720 -454 -1005 -259 -293 -651 -512 -1049 -585
-157 -29 -479 -31 -622 -5 -449 83 -833 301 -1107 630 -232 279 -369 587 -419
944 -24 172 -15 434 21 603 77 366 244 680 500 935 397 398 932 590 1486 535z
m-1551 -78 c0 -9 -9 -23 -20 -30 -11 -7 -20 -17 -20 -22 0 -6 11 -4 24 5 13 8
31 13 40 9 21 -8 116 -122 116 -139 0 -14 -164 -155 -180 -155 -11 0 -99 99
-112 127 -9 18 -8 27 5 41 26 28 20 36 -9 13 -27 -21 -57 -18 -52 5 4 18 178
164 196 164 6 0 12 -8 12 -18z m2796 -30 c5 -22 11 -28 32 -27 23 0 27 -4 27
-28 -1 -24 2 -27 21 -23 29 8 52 -18 34 -39 -6 -8 -9 -19 -5 -25 4 -6 -1 -22
-10 -37 -15 -22 -22 -25 -61 -20 -48 5 -55 -1 -24 -21 22 -13 28 -52 8 -52 -7
0 -27 14 -45 32 -26 25 -36 29 -45 20 -18 -18 -43 -15 -69 8 -21 17 -22 21 -9
30 8 5 22 8 30 5 8 -3 -2 10 -22 29 -21 18 -38 38 -38 44 0 24 22 22 57 -6 61
-47 84 -49 41 -5 -25 26 -38 48 -38 66 0 20 10 33 38 51 50 33 71 33 78 -2z
m312 -302 c22 -29 29 -60 15 -60 -5 -1 -23 -14 -41 -29 l-34 -29 46 -60 c47
-62 55 -81 34 -83 -7 -1 -17 -2 -23 -4 -5 -1 -16 -3 -22 -3 -7 -1 -13 -13 -13
-27 0 -32 -34 -34 -51 -3 -10 19 -8 25 21 51 40 36 32 46 -15 17 -37 -23 -65
-21 -65 4 0 8 16 23 35 35 19 11 35 25 35 31 0 14 -7 13 -41 -7 -24 -14 -33
-15 -47 -5 -9 7 -27 17 -40 22 -13 6 -22 14 -20 19 4 11 188 161 198 161 3 0
16 -13 28 -30z m-3418 3 c0 -9 -27 -49 -60 -89 -33 -40 -60 -74 -60 -77 0 -3
32 -31 70 -62 70 -57 90 -95 52 -95 -22 0 -172 125 -172 143 0 7 11 29 25 49
14 20 25 44 25 52 0 8 10 21 23 27 12 6 32 24 45 40 26 32 52 38 52 12z m3486
-91 c26 -20 44 -54 44 -79 0 -18 -49 -63 -67 -63 -7 1 -74 84 -82 103 -6 14
41 57 63 57 12 0 31 -8 42 -18z m168 -364 c9 -12 16 -30 16 -40 0 -25 -31 -23
-37 2 -3 11 -10 20 -15 20 -5 0 -6 -9 -3 -21 8 -24 -19 -59 -45 -59 -30 0 -55
46 -39 71 8 12 12 11 24 -5 14 -19 15 -19 15 -1 0 24 28 55 51 55 10 0 25 -10
33 -22z m-3840 -3 c35 -23 50 -64 36 -101 -15 -39 -39 -64 -62 -64 -23 0 -23
4 7 48 30 43 30 50 8 74 -30 34 -93 11 -93 -35 0 -19 1 -19 18 -4 10 10 22 17
25 17 14 0 6 -49 -12 -71 l-18 -23 -27 27 c-30 30 -33 55 -11 97 26 50 82 65
129 35z m3906 -129 c0 -7 -15 -19 -32 -26 -18 -8 -40 -19 -48 -25 -22 -18 -78
-26 -86 -14 -9 15 40 59 68 60 13 0 32 4 43 9 31 13 55 11 55 -4z m-4000 -60
c19 -7 37 -21 38 -31 3 -15 -1 -17 -25 -11 -102 26 -126 12 -45 -26 26 -13 46
-27 44 -33 -8 -27 -124 17 -130 49 -2 9 4 28 12 41 19 28 50 31 106 11z m3928
-63 c9 -14 15 -15 56 -3 33 9 50 10 58 2 11 -11 -8 -24 -71 -47 -43 -15 -56
-10 -70 27 -14 37 8 55 27 21z m137 -74 c4 -5 -1 -19 -10 -29 -21 -24 -12 -57
21 -72 46 -21 29 -38 -38 -37 -143 3 -155 23 -58 97 71 55 76 57 85 41z
m-4109 -22 c26 -23 27 -24 14 -75 -11 -39 -18 -52 -32 -52 -29 0 -108 21 -114
31 -8 13 15 86 32 104 22 22 69 18 100 -8z m-72 -149 l58 -11 -6 -41 c-4 -23
-11 -45 -16 -50 -5 -5 -33 -5 -67 0 -44 7 -59 13 -61 27 -3 17 2 18 58 11 51
-6 62 -4 58 7 -2 8 -26 18 -51 23 -36 7 -47 14 -47 28 0 21 0 21 74 6z m4246
-123 c0 -8 -12 -17 -27 -21 -16 -3 -44 -10 -63 -15 -53 -14 -90 -11 -90 6 0 8
10 17 23 19 134 30 157 31 157 11z m-4327 -21 c3 -4 0 -19 -9 -35 -8 -16 -10
-29 -5 -29 5 0 12 11 15 25 10 38 48 52 81 31 23 -15 26 -23 23 -64 l-3 -47
-54 2 c-88 4 -115 34 -91 97 9 25 29 34 43 20z m4347 -101 c0 -58 -20 -83 -68
-83 -51 0 -72 23 -72 81 0 52 2 54 75 62 51 5 65 -8 65 -60z m-4345 -75 c26
-20 28 -21 57 -3 39 22 59 6 30 -23 -18 -18 -19 -22 -6 -33 16 -13 19 -39 4
-39 -6 0 -22 7 -35 16 -22 14 -26 14 -47 0 -44 -31 -65 -12 -31 27 17 18 17
19 0 32 -18 13 -24 45 -8 45 4 0 21 -10 36 -22z m4245 -79 c10 -17 19 -20 58
-17 37 2 47 0 50 -13 2 -13 -9 -17 -55 -22 -66 -7 -83 2 -83 44 0 34 15 38 30
8z m-4167 -83 c5 -8 10 -6 16 3 11 17 41 7 41 -14 0 -11 -8 -16 -22 -15 -13 1
-25 1 -28 0 -3 -1 -31 -3 -63 -5 -57 -2 -73 5 -64 28 6 15 109 17 120 3z
m4265 -39 c22 -18 14 -74 -14 -96 -35 -28 -69 -26 -99 4 -33 32 -31 60 4 96
27 26 32 28 63 17 18 -6 39 -15 46 -21z m-4203 -126 c8 -14 -28 -31 -67 -31
-19 0 -43 -7 -54 -15 -16 -13 -17 -16 -4 -24 8 -6 24 -8 35 -6 53 12 100 10
100 -5 0 -8 -11 -17 -25 -21 -35 -10 -123 -10 -137 -1 -21 13 -27 66 -9 81 31
26 149 41 161 22z m4184 -45 c18 -19 21 -30 15 -65 -4 -23 -11 -44 -16 -47
-12 -8 -152 6 -168 16 -19 12 5 40 28 33 13 -3 18 3 20 23 5 63 77 87 121 40z
m-4209 -115 c5 -11 10 -33 10 -50 0 -26 -5 -31 -37 -40 -64 -17 -87 -17 -90 0
-3 11 8 18 43 25 73 14 71 37 -2 32 -47 -2 -59 0 -59 12 0 10 18 19 50 26 70
17 73 16 85 -5z m4148 -52 c34 -7 52 -15 52 -25 0 -17 -24 -17 -113 0 -73 14
-83 19 -72 36 7 11 25 9 133 -11z m-4073 -90 c0 -16 -148 -54 -174 -44 -26 10
13 33 68 40 25 4 55 10 66 15 25 11 40 7 40 -11z m4101 -45 c-8 -39 -11 -40
-111 -16 -50 12 -71 22 -73 35 -4 21 7 21 83 2 40 -11 61 -13 63 -5 2 6 11 18
20 27 20 20 26 5 18 -43z m-4116 -44 c0 -11 -11 -27 -25 -36 -35 -23 -31 -32
12 -36 28 -2 39 -8 41 -22 4 -18 -1 -18 -64 -12 -102 10 -108 21 -43 78 58 52
79 59 79 28z m4004 -100 c58 -22 58 -22 53 -57 -13 -80 -65 -106 -122 -62 -27
22 -30 46 -11 90 5 12 1 18 -13 22 -12 3 -21 13 -21 22 0 21 26 17 114 -15z
m-3950 -81 c30 -35 32 -56 10 -87 -23 -34 -48 -28 -69 18 -10 22 -22 40 -27
40 -13 0 -10 -12 12 -45 24 -36 25 -45 5 -45 -46 0 -74 90 -37 122 41 36 74
35 106 -3z m3940 -119 c7 -7 7 -13 0 -20 -7 -7 -24 -4 -54 9 -24 11 -48 17
-52 15 -18 -11 -6 -26 37 -45 46 -20 56 -35 31 -45 -18 -7 -116 43 -116 59 0
6 9 27 20 45 l20 32 52 -20 c28 -10 56 -24 62 -30z m-3865 -36 c6 -14 11 -27
11 -29 0 -9 -36 -5 -45 4 -6 6 -26 2 -53 -10 -41 -19 -62 -18 -62 1 0 13 112
69 126 63 6 -2 16 -15 23 -29z m3751 -59 c57 -29 61 -45 27 -96 -16 -24 -31
-35 -53 -37 -37 -4 -84 30 -84 61 0 21 44 97 56 97 2 0 27 -11 54 -25z m-3694
-51 c15 -22 15 -27 3 -35 -22 -13 -39 -11 -39 7 0 8 -5 12 -10 9 -8 -5 -8 -11
0 -20 9 -10 6 -19 -9 -34 -12 -12 -26 -21 -33 -21 -20 0 -48 32 -48 57 0 30
28 31 40 1 8 -21 9 -20 9 9 1 54 58 72 87 27z m93 -77 c0 -15 -123 -97 -144
-97 -31 0 -14 30 33 56 26 15 58 34 72 44 26 18 40 17 39 -3z m51 -77 c0 -19
-43 -70 -59 -70 -9 0 -27 -9 -41 -20 -61 -48 -68 -7 -7 42 67 55 107 73 107
48z m3401 -20 c25 -14 24 -22 -7 -60 -15 -17 -23 -34 -19 -38 7 -7 39 27 48
51 8 22 30 -9 22 -32 -19 -59 -85 -79 -125 -37 -31 34 -29 74 4 103 30 25 47
28 77 13z m-3374 -76 c3 -8 1 -20 -6 -27 -6 -6 -11 -19 -11 -29 0 -15 3 -17
19 -8 30 16 53 12 49 -7 -2 -13 -24 -22 -78 -35 -41 -9 -81 -15 -87 -13 -21 7
-15 22 15 34 18 8 37 28 50 56 23 47 38 56 49 29z m3249 -56 c4 -6 -4 -19 -19
-30 -31 -23 -33 -35 -11 -59 20 -22 43 -14 55 18 11 30 46 28 41 -2 -11 -63
-93 -87 -131 -39 -28 36 -26 60 8 95 32 31 46 36 57 17z m-3064 -131 l-3 -35
42 5 c36 5 41 4 37 -13 -2 -13 -15 -21 -41 -25 -47 -8 -48 -9 -55 -64 -4 -35
-8 -45 -21 -43 -12 3 -16 14 -14 44 l1 41 -40 -1 c-50 -1 -62 20 -16 29 62 12
66 15 73 53 8 45 14 54 28 49 7 -2 11 -19 9 -40z m2988 -32 c37 -38 41 -45 26
-51 -12 -5 -29 5 -57 32 -30 29 -39 34 -39 20 0 -10 11 -31 25 -48 54 -64 17
-80 -39 -17 -42 49 -43 55 -14 86 31 33 48 29 98 -22z m-2850 -66 c0 -12 -87
-121 -105 -132 -20 -11 -28 10 -13 32 52 74 118 130 118 100z m2724 -5 c9 -8
16 -22 16 -30 0 -8 6 -23 13 -35 11 -18 8 -24 -21 -50 -25 -22 -39 -28 -55
-23 -31 9 -48 24 -59 53 -13 35 -3 63 29 83 35 22 57 22 77 2z m-151 -114 c26
-33 50 -66 53 -74 8 -22 -13 -28 -31 -10 -28 28 -95 122 -95 134 0 25 29 5 73
-50z m-2508 15 c14 -13 25 -28 25 -33 0 -17 -72 -103 -83 -99 -20 6 -18 24 8
56 15 17 25 39 23 48 -3 15 -10 11 -38 -19 -36 -41 -60 -49 -60 -20 0 21 66
92 86 92 8 0 26 -11 39 -25z m2442 -62 c3 -7 -7 -15 -21 -19 -37 -9 -50 -28
-36 -53 14 -27 42 -27 65 -1 22 24 35 26 35 3 0 -29 -41 -63 -76 -63 -55 0
-93 69 -61 111 28 36 85 49 94 22z m-2326 -15 c22 -12 39 -27 39 -33 0 -14
-50 -84 -73 -104 -14 -11 -23 -11 -47 -1 -43 18 -56 36 -39 56 12 15 15 14 30
-5 10 -12 23 -21 29 -21 7 0 1 9 -14 21 -31 25 -33 47 -5 83 25 32 31 32 80 4z
m2154 -38 c3 -5 -3 -15 -15 -22 -28 -18 -25 -28 10 -28 34 0 70 -30 70 -59 0
-38 -81 -70 -93 -37 -7 19 1 26 31 26 37 0 21 23 -23 32 -34 8 -64 30 -65 51
0 4 9 16 20 27 21 21 55 27 65 10z m-1999 -14 c6 -16 -74 -154 -97 -166 -8 -5
-21 -5 -29 0 -11 7 -7 15 16 42 16 19 43 58 59 86 31 54 42 62 51 38z m84 -37
c0 -24 -72 -159 -86 -159 -23 0 -16 28 24 101 33 61 62 88 62 58z m1733 -116
c15 -47 25 -88 23 -91 -14 -13 -36 13 -65 74 -32 69 -33 104 -3 104 12 0 24
-24 45 -87z m-1610 14 c19 -13 26 -24 22 -36 -4 -9 -12 -29 -17 -46 -15 -44
-23 -48 -63 -41 -73 14 -98 78 -50 130 28 30 58 28 108 -7z m1517 -37 c42 -42
8 -120 -52 -120 -64 0 -95 81 -46 123 27 23 73 22 98 -3z m-1378 -20 c15 -18
15 -24 0 -70 -12 -37 -21 -50 -35 -50 -15 0 -18 5 -13 23 4 12 10 37 13 56 9
49 -17 36 -35 -17 -13 -39 -34 -54 -46 -33 -4 5 4 35 16 66 21 55 23 57 52 51
17 -3 38 -15 48 -26z m256 -11 c29 -10 51 -43 38 -57 -4 -3 -20 2 -35 11 -53
31 -91 17 -91 -35 0 -38 41 -65 74 -50 26 11 36 7 36 -15 0 -41 -105 -33 -135
10 -23 33 -19 90 8 114 37 34 58 38 105 22z m292 -104 c0 -82 -6 -105 -26
-105 -11 0 -14 19 -14 88 0 93 3 104 26 95 10 -4 14 -25 14 -78z m569 63 c15
-16 20 -31 16 -56 -5 -45 -26 -65 -64 -65 -42 0 -71 28 -71 70 0 65 76 98 119
51z m-491 -75 c-2 -70 -6 -88 -18 -88 -12 0 -16 16 -18 74 -3 84 1 101 23 101
13 0 15 -13 13 -87z m332 41 c15 -39 12 -101 -6 -119 -11 -10 -29 -15 -52 -13
-45 4 -56 28 -13 28 16 0 33 4 36 10 3 6 -9 9 -31 7 -35 -2 -39 1 -47 30 -15
49 11 83 63 83 34 0 42 -4 50 -26z m-510 -4 c44 -44 8 -120 -57 -120 -27 0
-37 6 -53 32 -21 35 -19 60 8 91 21 24 77 22 102 -3z m320 10 c33 -17 42 -46
30 -89 -10 -40 -25 -51 -64 -51 -66 0 -93 87 -40 129 30 23 46 26 74 11z"/>
<path d="M2651 4682 c-13 -25 -14 -52 -2 -52 9 0 24 60 17 67 -2 3 -9 -4 -15
-15z"/>
<path d="M2705 4619 c-4 -6 -5 -12 -2 -15 2 -3 7 2 10 11 7 17 1 20 -8 4z"/>
<path d="M2790 4559 c0 -5 5 -7 10 -4 6 3 10 8 10 11 0 2 -4 4 -10 4 -5 0 -10
-5 -10 -11z"/>
<path d="M1835 4553 c-50 -15 -73 -28 -64 -37 6 -7 131 32 144 45 13 13 -21
10 -80 -8z"/>
<path d="M3117 4555 c15 -19 32 -35 36 -35 15 0 47 21 47 30 0 7 -88 40 -107
40 -2 0 9 -16 24 -35z"/>
<path d="M3526 4415 c-18 -27 -21 -45 -7 -45 10 0 41 45 41 60 0 18 -17 11
-34 -15z"/>
<path d="M3472 4320 c-18 -30 -15 -46 13 -58 38 -17 42 -15 16 9 -21 20 -21
23 -7 37 12 13 19 14 28 4 7 -7 17 -12 23 -12 14 1 -34 40 -49 40 -6 0 -17 -9
-24 -20z"/>
<path d="M2495 3871 c-39 -18 -76 -52 -108 -101 -24 -35 -21 -43 10 -23 20 13
46 18 98 17 58 -1 95 -10 210 -52 178 -64 208 -72 275 -72 87 0 134 42 165
149 6 21 5 23 -11 16 -41 -17 -73 -15 -169 10 -55 15 -140 38 -190 51 -112 30
-222 32 -280 5z"/>
<path d="M2410 3613 c108 -55 185 -109 263 -183 204 -192 308 -473 277 -749
-6 -52 -12 -96 -14 -98 -1 -2 -56 14 -122 36 -332 109 -615 126 -860 51 -266
-81 -409 -266 -374 -487 21 -130 112 -280 238 -391 92 -80 95 -81 59 -10 -26
52 -32 75 -32 130 0 58 4 72 30 109 35 50 108 91 192 108 88 17 243 13 354 -9
118 -24 269 -77 269 -94 0 -19 -149 -168 -221 -221 -97 -72 -209 -124 -332
-156 -81 -20 -39 -31 124 -31 267 -1 443 59 639 217 l79 63 100 -61 c218 -133
395 -279 504 -417 l60 -75 -6 65 c-4 36 -14 166 -22 290 -9 124 -20 284 -25
355 l-10 130 -43 37 c-23 21 -95 73 -159 115 l-117 76 7 46 c4 25 7 114 6 196
-1 133 -4 160 -28 240 -85 281 -259 480 -546 625 -110 55 -267 116 -325 125
-36 5 -33 2 35 -32z"/>
<path d="M1818 3288 c2 -24 9 -49 15 -56 6 -7 80 -54 164 -104 147 -86 174
-108 136 -108 -39 0 -186 -60 -257 -104 -81 -51 -168 -130 -214 -198 -68 -100
-122 -238 -122 -313 0 -24 10 -11 49 70 104 213 293 375 503 429 90 23 247 39
323 31 62 -5 68 -5 50 8 -26 18 -642 387 -647 387 -2 0 -2 -19 0 -42z"/>
<path d="M1534 3298 c3 -13 7 -39 10 -58 5 -31 15 -41 96 -90 83 -51 111 -80
76 -80 -28 0 -129 -124 -167 -205 -67 -142 -84 -227 -84 -412 0 -106 4 -166
11 -173 8 -8 13 24 17 122 5 148 23 222 83 342 75 149 199 261 332 301 l61 19
-32 19 c-81 50 -400 237 -403 237 -3 0 -2 -10 0 -22z"/>
<path d="M1169 3268 c-24 -89 -48 -238 -59 -360 -41 -454 137 -863 471 -1083
78 -51 239 -135 259 -135 8 0 -22 26 -66 58 -92 68 -163 141 -223 231 -202
298 -226 705 -61 1036 27 54 48 100 47 100 -1 1 -79 45 -173 98 -95 53 -174
97 -178 97 -3 0 -10 -19 -17 -42z"/>
<path d="M2106 1124 c-9 -8 -16 -22 -16 -30 0 -19 34 -18 50 1 17 21 60 20 60
-2 0 -9 -27 -41 -60 -72 -65 -61 -73 -80 -35 -82 129 -7 152 -3 142 24 -4 12
-15 14 -41 10 -29 -5 -36 -2 -36 11 0 9 11 21 23 27 23 11 57 57 57 78 0 6 -9
20 -20 31 -25 25 -101 28 -124 4z"/>
<path d="M2327 1122 c-21 -23 -31 -72 -23 -115 16 -86 114 -108 152 -34 18 34
12 107 -12 145 -19 29 -92 32 -117 4z m77 -18 c11 -10 16 -34 16 -68 0 -62
-16 -84 -49 -66 -17 9 -21 20 -21 62 0 34 6 58 17 70 20 22 18 22 37 2z"/>
<path d="M2541 1114 c-37 -47 -21 -160 24 -178 54 -20 107 7 118 62 8 40 -9
114 -29 129 -10 7 -35 13 -55 13 -29 0 -42 -6 -58 -26z m93 -26 c3 -13 6 -42
6 -64 0 -50 -19 -71 -49 -54 -17 9 -21 20 -21 63 0 29 5 58 12 65 19 19 45 14
52 -10z"/>
<path d="M2760 1122 c-13 -11 -20 -24 -16 -30 10 -16 31 -15 46 3 14 17 56 20
65 5 9 -15 -11 -44 -47 -70 -19 -12 -44 -37 -55 -55 l-22 -33 32 -4 c64 -7
147 3 147 18 0 15 -8 17 -57 14 -18 -1 -33 2 -33 6 0 4 18 24 40 44 44 41 52
76 22 103 -25 23 -94 22 -122 -1z"/>
<path d="M1140 4125 c27 -29 37 -27 20 4 -6 12 -18 21 -27 21 -13 0 -12 -5 7
-25z"/>
<path d="M1080 4107 c0 -5 11 -23 25 -41 30 -40 31 -44 3 -73 -35 -37 -5 -27
51 18 50 40 73 76 29 45 -30 -22 -32 -21 -72 22 -20 20 -36 33 -36 29z"/>
<path d="M1030 4059 c0 -9 9 -24 20 -34 26 -23 26 -4 0 26 -15 18 -19 20 -20
8z"/>
<path d="M3860 4157 c0 -13 100 -107 114 -107 18 0 -1 24 -54 70 -36 31 -60
46 -60 37z"/>
<path d="M4145 3839 c-103 -83 -97 -92 8 -11 31 25 57 47 57 48 0 11 -20 -1
-65 -37z"/>
<path d="M4259 3772 c14 -27 41 -48 41 -33 0 22 -20 51 -36 51 -11 0 -12 -4
-5 -18z"/>
<path d="M4526 3053 c-11 -11 -6 -23 9 -23 8 0 15 4 15 9 0 13 -16 22 -24 14z"/>
<path d="M414 3075 c-10 -25 4 -45 30 -45 27 0 42 26 25 46 -15 19 -48 18 -55
-1z"/>
<path d="M380 2754 c0 -33 33 -30 38 4 3 17 -2 22 -17 22 -16 0 -21 -6 -21
-26z"/>
<path d="M4594 2716 c-10 -26 4 -46 31 -46 23 0 26 4 23 28 -3 31 -44 45 -54
18z"/>
<path d="M4644 2406 c1 -20 6 -34 11 -33 16 6 17 31 2 51 -12 17 -14 15 -13
-18z"/>
<path d="M4590 2395 c0 -8 5 -15 10 -15 6 0 10 7 10 15 0 8 -4 15 -10 15 -5 0
-10 -7 -10 -15z"/>
<path d="M4590 2235 c-10 -12 -10 -18 0 -30 26 -32 68 -8 54 30 -4 8 -14 15
-24 15 -10 0 -23 -7 -30 -15z"/>
<path d="M4476 1772 c-10 -29 4 -52 29 -52 15 0 26 8 30 21 8 23 0 34 -32 43
-16 5 -23 2 -27 -12z"/>
<path d="M530 1723 c0 -15 31 -46 38 -38 3 3 -4 15 -16 28 -12 12 -22 16 -22
10z"/>
<path d="M4336 1474 c-8 -21 11 -44 35 -44 19 0 35 33 24 50 -10 16 -52 12
-59 -6z"/>
<path d="M4192 1258 c-7 -7 -12 -16 -12 -20 0 -15 15 -8 28 12 13 22 3 27 -16
8z"/>
<path d="M3860 895 c-7 -8 -8 -15 -2 -15 5 0 15 7 22 15 7 8 8 15 2 15 -5 0
-15 -7 -22 -15z"/>
<path d="M3898 866 c-10 -7 -18 -18 -18 -25 0 -16 36 3 44 24 7 18 -3 19 -26
1z"/>
<path d="M1324 725 c-4 -9 -2 -21 4 -27 15 -15 44 -1 40 19 -4 23 -36 29 -44
8z"/>
<path d="M1658 534 c-10 -22 -10 -28 6 -40 21 -15 31 -12 46 16 7 14 6 23 -6
34 -22 22 -33 20 -46 -10z"/>
<path d="M3187 504 c-11 -12 -8 -41 6 -53 19 -15 50 9 45 35 -3 19 -38 31 -51
18z"/>
<path d="M2930 435 c-14 -16 -10 -18 14 -9 9 3 16 10 16 15 0 14 -16 11 -30
-6z"/>
<path d="M2948 393 c-21 -5 -24 -23 -5 -23 7 0 22 7 33 15 20 15 9 18 -28 8z"/>
<path d="M2767 413 c-15 -14 -7 -43 12 -43 24 0 33 13 25 34 -6 16 -25 21 -37
9z"/>
<path d="M2260 395 c-16 -19 -9 -49 14 -53 35 -7 49 40 17 57 -14 8 -22 7 -31
-4z"/>
<path d="M2610 400 c-20 -12 -10 -19 14 -10 11 3 15 9 10 13 -6 3 -16 2 -24
-3z"/>
<path d="M2615 340 c-18 -8 -17 -9 7 -9 15 -1 30 4 33 9 7 12 -12 12 -40 0z"/>
</g>
</svg>
