<svg xmlns="http://www.w3.org/2000/svg" width="865.76" height="682.89" viewBox="0 0 865.76 682.89"><ellipse cx="475.33" cy="601.87" rx="269.09" ry="52.08" transform="translate(-12.64 10.21) rotate(-1.21)" fill="#6c3fc6"/><ellipse cx="475.33" cy="601.87" rx="269.09" ry="52.08" transform="translate(-12.64 10.21) rotate(-1.21)" fill="#fff" opacity="0.7"/><path d="M735.22,390.5s84.83-80.06,38.22-186.36a182.66,182.66,0,0,0-59.94-73.88c-58.33-42.59-205.94-126.87-428-94.32a165.86,165.86,0,0,0-66.88,25.11C186,82.43,151.5,121.71,166.19,189c5.19,23.78,4,48.59-4.54,71.38-8.48,22.59-24.55,50.25-54.46,80.16,0,0-63.75,61.57-1.74,114.86A113.12,113.12,0,0,0,151.25,479C228.56,498.78,541.19,564.48,735.22,390.5Z" fill="#6c3fc6"/><path d="M735.22,390.5s84.83-80.06,38.22-186.36a182.66,182.66,0,0,0-59.94-73.88c-58.33-42.59-205.94-126.87-428-94.32a165.86,165.86,0,0,0-66.88,25.11C186,82.43,151.5,121.71,166.19,189c5.19,23.78,4,48.59-4.54,71.38-8.48,22.59-24.55,50.25-54.46,80.16,0,0-63.75,61.57-1.74,114.86A113.12,113.12,0,0,0,151.25,479C228.56,498.78,541.19,564.48,735.22,390.5Z" fill="#fff" opacity="0.7"/><circle cx="197.25" cy="101.38" r="3.28" fill="#fff"/><circle cx="207.04" cy="101.38" r="3.28" fill="#fff"/><rect x="177.73" y="87.93" width="333.22" height="311.69" rx="15.7" fill="#2f2e41"/><path d="M495,394.81l-302.11-.62a10.52,10.52,0,0,1-10.5-10.52V123A10.52,10.52,0,0,1,193,112.49H495.06A10.52,10.52,0,0,1,505.58,123V384.29A10.52,10.52,0,0,1,495,394.81Z" fill="#6c3fc6"/><path d="M495,394.81l-302.11-.62a10.52,10.52,0,0,1-10.5-10.52V123A10.52,10.52,0,0,1,193,112.49H495.06A10.52,10.52,0,0,1,505.58,123V384.29A10.52,10.52,0,0,1,495,394.81Z" fill="#fff" opacity="0.4"/><circle cx="217.08" cy="101.38" r="3.28" fill="#fff"/><rect x="193.97" y="127.2" width="81.63" height="252.86" rx="5.61" fill="#fff" opacity="0.4"/><circle cx="233.94" cy="160.67" r="21.89" fill="#fff"/><circle cx="233.94" cy="153.89" r="5.19" fill="#6c3fc6"/><path d="M224.38,171.52h20.23a1.54,1.54,0,0,0,1.42-2.16c-1.41-3.16-4.91-8.69-12.09-8.69,0,0-7.65,0-11,8.73A1.55,1.55,0,0,0,224.38,171.52Z" fill="#6c3fc6"/><rect x="201.88" y="198.73" width="19.36" height="17.28" fill="#fff" opacity="0.4"/><rect x="201.88" y="223.16" width="66.32" height="5.3" fill="#fff" opacity="0.4"/><rect x="201.62" y="232.02" width="66.32" height="5.3" fill="#fff" opacity="0.4"/><rect x="201.88" y="240.87" width="66.32" height="5.3" fill="#fff" opacity="0.4"/><rect x="201.88" y="249.72" width="66.32" height="5.3" fill="#fff" opacity="0.4"/><rect x="201.88" y="263.03" width="66.32" height="44.18" rx="2.6" fill="#fff" opacity="0.4"/><rect x="225.1" y="198.73" width="19.36" height="17.28" fill="#fff" opacity="0.4"/><rect x="248.84" y="198.73" width="19.36" height="17.28" fill="#fff" opacity="0.4"/><rect x="293" y="127.2" width="110.1" height="85.78" rx="3.49" fill="#fff" opacity="0.4"/><polyline points="301.79 138.79 301.79 200.66 393.25 200.66 393.25 138.79" fill="none" stroke="#fff" stroke-miterlimit="10" opacity="0.4"/><path d="M301.79,200.66s27.4-3.87,42.55-26c0,0,19-34.62,51-34.19" fill="none" stroke="#fff" stroke-miterlimit="10"/><line x1="324.3" y1="138.79" x2="324.3" y2="200.66" fill="none" stroke="#fff" stroke-miterlimit="10" opacity="0.4"/><line x1="347.52" y1="139.15" x2="347.52" y2="201.02" fill="none" stroke="#fff" stroke-miterlimit="10" opacity="0.4"/><line x1="370.39" y1="139.15" x2="370.39" y2="201.02" fill="none" stroke="#fff" stroke-miterlimit="10" opacity="0.4"/><line x1="301.79" y1="159.08" x2="393.25" y2="159.08" fill="none" stroke="#fff" stroke-miterlimit="10" opacity="0.4"/><line x1="301.79" y1="182.56" x2="393.25" y2="182.56" fill="none" stroke="#fff" stroke-miterlimit="10" opacity="0.4"/><rect x="416.55" y="127.2" width="111.62" height="85.78" rx="3.4" fill="#6c3fc6"/><rect x="428.65" y="143.65" width="85.47" height="53.36" rx="3.71" fill="#fff" opacity="0.4"/><polyline points="435.89 164.91 435.89 190.17 507.43 190.17 507.43 154.33" fill="none" stroke="#fff" stroke-miterlimit="10"/><path d="M485.84,171.89c-7.14,0-14-5.67-14.84-6.38-8-5-12.28,1.57-12.46,1.85a1.15,1.15,0,0,1-.14.17,10.82,10.82,0,0,1-7.54,3.55,10.63,10.63,0,0,1-7.2-2.63c-4.44-3.73-7.28-2.56-7.3-2.55a1.1,1.1,0,1,1-.94-2c.16-.08,4.07-1.83,9.66,2.85a8.57,8.57,0,0,0,5.69,2.12,8.7,8.7,0,0,0,6-2.81c.71-1,6.21-8.23,15.5-2.38l.13.1c.11.09,11.12,9.54,18.85,4.28a8.7,8.7,0,0,0,3.09-4c1.6-4,6.12-13,13.44-10.77a1.1,1.1,0,1,1-.65,2.11c-5.58-1.72-9.37,6.06-10.75,9.49a10.9,10.9,0,0,1-3.89,5A11.56,11.56,0,0,1,485.84,171.89Z" fill="#6c3fc6"/><rect x="291.13" y="225.81" width="204.84" height="90.87" rx="6.36" fill="#fff" opacity="0.4"/><path d="M351.1,271.25c0,.43.06.88.06,1.32a15.71,15.71,0,0,1-5.86,12.25l8.75,13.43a31.69,31.69,0,0,0,13.1-25.68,33,33,0,0,0-.33-4.58Z" fill="#2f2e41"/><path d="M366.14,264.62a31.8,31.8,0,0,0-14.34-19.21l-7.79,14a15.75,15.75,0,0,1,6.47,8.59Z" fill="#f1f2f2"/><rect x="385.82" y="242.01" width="16.25" height="64.25" rx="3.53" fill="#6c3fc6"/><rect x="385.82" y="259.94" width="16.25" height="46.31" rx="3.53" opacity="0.2"/><rect x="411.85" y="242.01" width="16.25" height="64.25" rx="3.53" fill="#2f2e41"/><rect x="411.85" y="276.12" width="16.25" height="30.13" rx="3.53" opacity="0.2"/><rect x="437.59" y="242.01" width="16.25" height="64.25" rx="3.53" fill="#6c3fc6"/><rect x="437.59" y="288.29" width="16.25" height="17.97" rx="3.53" opacity="0.2"/><rect x="464.24" y="242.01" width="16.25" height="64.25" rx="3.53" fill="#2f2e41"/><rect x="464.24" y="267.99" width="16.25" height="38.27" rx="3.53" opacity="0.2"/><rect x="291.13" y="333.95" width="63.95" height="46.11" rx="3.1" fill="#fff" opacity="0.4"/><rect x="361.28" y="333.95" width="134.69" height="46.11" rx="3.1" fill="#fff" opacity="0.4"/><path d="M361.28,350.26A20.35,20.35,0,0,1,374,360.18s5.48,8,12.25,2.13a8.44,8.44,0,0,0,1.79-2.28c1.92-3.45,8.49-13.71,17.37-10.95,0,0,7.55.71,12,9.21,0,0,4.66,8.77,12.33,5.91a10.54,10.54,0,0,0,4.21-3l5.65-6.43s5.67-6.72,11.1-6.13c0,0,5.55-.05,12.52,8.06,0,0,7.32,10.68,15.58,8.09,0,0,3.75-1.58,6.55-7a22.55,22.55,0,0,1,1.19-2.09c1.63-2.47,5.55-7.76,9.36-7.86" fill="none" stroke="#fff" stroke-miterlimit="10"/><line x1="361.28" y1="356.48" x2="495.96" y2="356.48" fill="none" stroke="#fff" stroke-miterlimit="10" opacity="0.4"/><line x1="384.41" y1="333.95" x2="384.41" y2="380.06" fill="none" stroke="#fff" stroke-miterlimit="10" opacity="0.4"/><line x1="406.89" y1="333.95" x2="406.89" y2="380.06" fill="none" stroke="#fff" stroke-miterlimit="10" opacity="0.4"/><line x1="428.62" y1="333.95" x2="428.62" y2="380.06" fill="none" stroke="#fff" stroke-miterlimit="10" opacity="0.4"/><line x1="450.92" y1="333.95" x2="450.92" y2="380.06" fill="none" stroke="#fff" stroke-miterlimit="10" opacity="0.4"/><line x1="473.43" y1="333.95" x2="473.43" y2="380.06" fill="none" stroke="#fff" stroke-miterlimit="10" opacity="0.4"/><path d="M337.87,359l3.57-.13-.23-5.91-3.64.14a14.85,14.85,0,0,0-3-5.84l2.6-2.94-4.44-3.91L330,343.51a14.82,14.82,0,0,0-4.89-1.56l-.17-4.44-5.91.22.18,4.61a14.84,14.84,0,0,0-5,2.46l-2.79-2.63-4.06,4.31,2.91,2.73a15.14,15.14,0,0,0-1.81,5l-3.65.14.23,5.91,3.57-.14a14.91,14.91,0,0,0,2.28,5.16l-3,3.44,4.43,3.91,2.87-3.25a14.9,14.9,0,0,0,5.19,2.06l.15,4.05,5.91-.22-.15-3.89a14.84,14.84,0,0,0,5.2-2.19l2.62,2.46,4.05-4.3-2.5-2.36A14.84,14.84,0,0,0,337.87,359ZM323.5,367a10.57,10.57,0,1,1,10.37-10.57A10.47,10.47,0,0,1,323.5,367Z" fill="#6c3fc6"/><polygon points="565.37 510.15 528.54 633.54 538.58 633.54 570.69 524.95 570.69 633.54 581.43 633.54 581.43 524.32 613.54 633.54 625.19 633.54 588.35 510.15 565.37 510.15" fill="#bcbec0"/><rect x="409.32" y="480.21" width="11.18" height="155.86" fill="#d1d3d4"/><rect x="688.89" y="480.21" width="11.18" height="155.86" fill="#d1d3d4"/><polygon points="486.4 400.75 514.71 399.83 546.05 441.02 516.1 441.98 486.4 400.75" fill="#6c3fc6"/><path d="M604,341.59c-1.53,4.14-21.36,8.51-21.36,8.51.08-.26.17-.53.24-.78h0a14.94,14.94,0,0,0,.45-4.71,31.08,31.08,0,0,0,9.94-19.1,32.81,32.81,0,0,0,.32-7.33l5.13-8.21,8.83.82-6.14,15.71,1.89,5.08C602.8,334.48,604,341.59,604,341.59Z" fill="#f9b499"/><path d="M582.89,349.32h0a14.94,14.94,0,0,0,.45-4.71,31.08,31.08,0,0,0,9.94-19.1l1.71-2.9S604.46,342.43,582.89,349.32Z" fill="#f7a48b"/><path d="M568.48,404.29c-19.24,4-29.52-12.16-29.52-12.16L519,365.89a2.9,2.9,0,0,1-.4-2.8c1.46-3.79,5.85-7.27,8-8.78a3,3,0,0,1,2.74-.4c9.06,3.33,27.49,25.81,27.83,25.59s20.18-17.71,20.18-17.71l1.66-5.2c1.53-6.85,3.66-6.49,3.66-6.49s20.54-4.61,21.37-8.5V339s2-.12,10.27,15.47c0,0,6.85,9.91,8.14,29.87l-2.12,64.81H566.16V445s-9.29-.16-12-2.2l-5.24-.07a1,1,0,0,1-1-1V427a1,1,0,0,1,1-1l14.36.07a7.93,7.93,0,0,1,5.09-3.78Z" fill="#6c3fc6"/><path d="M535.19,357.5a45.5,45.5,0,0,1-4.68,5.82A43.34,43.34,0,0,1,525,368.4a50.58,50.58,0,0,1,10.16-10.9Z" opacity="0.2"/><path d="M557.15,379.5c-.35,2.1-.67,4.12-.85,6.17-.1,1-.17,2.05-.21,3.08s-.06,2.07-.12,3.14a13.89,13.89,0,0,1-.76-6.33,15.31,15.31,0,0,1,.62-3.14A10.69,10.69,0,0,1,557.15,379.5Z" opacity="0.2"/><path d="M577.33,361.79c-.58,1.58-1.18,3.15-1.71,4.74s-1.12,3.17-1.63,4.76c-1,3.2-2,6.39-2.84,9.64a86.56,86.56,0,0,0-2,9.81c-.15.82-.21,1.65-.29,2.48a23.45,23.45,0,0,0-.15,2.5c0,.84-.09,1.68,0,2.51s.12,1.67.16,2.52a32.28,32.28,0,0,1-.52-10.1,58.37,58.37,0,0,1,1.78-10,85.85,85.85,0,0,1,3.1-9.64A82.87,82.87,0,0,1,577.33,361.79Z" opacity="0.2"/><path d="M581.74,350.46q1.49,2.3,2.9,4.63c.93,1.57,1.88,3.12,2.79,4.69l-.66-.18c3.52-2.16,7.09-4.24,10.68-6.28,1.79-1,3.61-2,5.43-3s3.65-1.92,5.51-2.84c-1.71,1.17-3.43,2.32-5.18,3.41s-3.48,2.22-5.25,3.28c-3.54,2.14-7.09,4.23-10.7,6.24l-.44.24-.22-.42c-.85-1.61-1.66-3.24-2.49-4.86S582.5,352.12,581.74,350.46Z" opacity="0.2"/><path d="M563.64,428.45a25.19,25.19,0,0,1,.55,5.51,24.53,24.53,0,0,1-.55,5.51,24.53,24.53,0,0,1-.55-5.51A25.19,25.19,0,0,1,563.64,428.45Z" opacity="0.2"/><path d="M570.43,421.53a81.33,81.33,0,0,1,10.64-3.74,60.38,60.38,0,0,1,11.12-2.06l-.34.37c-.19-5.14-.39-10.28-.52-15.42l-.46-15.44-.1-3.85,0-1.94c0-.69.09-1.33.18-2a24.24,24.24,0,0,1,2.24-7.53,15.61,15.61,0,0,1,5.05-6,15.41,15.41,0,0,1,7.44-2.54h0a11.66,11.66,0,0,1,6.86,1.57,13.2,13.2,0,0,1,4.84,5,19.2,19.2,0,0,1,1.47,3.15c.37,1.09.67,2.21,1,3.33s.43,2.27.56,3.41l.27,3.44-.43-3.42c-.17-1.13-.45-2.24-.68-3.36s-.65-2.19-1.05-3.25a18.8,18.8,0,0,0-1.55-3,12.74,12.74,0,0,0-4.72-4.67,11,11,0,0,0-6.38-1.34h0a15.13,15.13,0,0,0-7,2.49,14.66,14.66,0,0,0-4.7,5.7A23.08,23.08,0,0,0,592,377.6a17.3,17.3,0,0,0-.16,1.86l.05,1.92.1,3.85.34,15.43c.13,5.14.2,10.28.27,15.43v.35l-.35,0a63.89,63.89,0,0,0-11.05,1.76A92.6,92.6,0,0,0,570.43,421.53Z" opacity="0.2"/><path d="M592.21,416.1a12,12,0,0,1,3.53.79,16.52,16.52,0,0,1,3.23,1.68,13.68,13.68,0,0,1,2.71,2.44,10.29,10.29,0,0,1,1.86,3.11c-.83-.87-1.59-1.75-2.47-2.51a25.63,25.63,0,0,0-2.73-2.13A40.24,40.24,0,0,0,592.21,416.1Z" opacity="0.2"/><path d="M572.87,445.14c2.18-.38,4.36-.75,6.53-1.18s4.33-.83,6.49-1.31c4.31-.93,8.61-1.93,12.82-3.21a75.34,75.34,0,0,0,12.32-4.6,28.62,28.62,0,0,0,5.54-3.47,12.24,12.24,0,0,0,4-5.12,11.87,11.87,0,0,1-3.62,5.53,29.26,29.26,0,0,1-5.51,3.81A68.82,68.82,0,0,1,599,440.5a131.57,131.57,0,0,1-13,3A126.89,126.89,0,0,1,572.87,445.14Z" opacity="0.2"/><path d="M617.24,439.47a17.75,17.75,0,0,1-1.84,3.37,22.45,22.45,0,0,1-2.43,3,14.09,14.09,0,0,1-3.06,2.41,5.82,5.82,0,0,1-3.77.9,8.17,8.17,0,0,0,3.3-1.62,22.72,22.72,0,0,0,2.74-2.46C613.93,443.3,615.52,441.37,617.24,439.47Z" opacity="0.2"/><path d="M548,438.48s-7.41,2.38-14.25,0c0,0-21.2-8.31-17.81-14.36,0,0,1.92-8,15.35,0,0,0,1.68.68.91-1.33l-2.42-3.18s4.33-.77,10.4,2.45a14.83,14.83,0,0,1,2.6,1.79A17.53,17.53,0,0,0,548,427Z" fill="#f9b499"/><path d="M520.85,421.53a31.08,31.08,0,0,1,5.72,2.42,30.7,30.7,0,0,1,5.19,3.4,30.07,30.07,0,0,1-5.71-2.43A30.72,30.72,0,0,1,520.85,421.53Z" fill="#f7a48b"/><path d="M518.43,424.44A27.62,27.62,0,0,1,528,429.7a24.14,24.14,0,0,1-5.06-2.15A24.4,24.4,0,0,1,518.43,424.44Z" fill="#f7a48b"/><path d="M518.43,428.45A12,12,0,0,1,522,429.8a11.76,11.76,0,0,1,3,2.32,13.12,13.12,0,0,1-6.6-3.67Z" fill="#f7a48b"/><path d="M501.7,337.43l7.21,4.52a3.25,3.25,0,0,0,3.26.1c8.74-4.65,14.41,12.26,14.41,12.26-6.12,4.18-7.6,8-7.6,8-7.62-.68-16.58-11-19.23-14.2a1.55,1.55,0,0,1,0-1.95h0a1.56,1.56,0,0,1,2.24-.24l4.43,3.67a.81.81,0,0,0,1.33-.66l-.11-2.52a2.83,2.83,0,0,0-1.28-2.23L500,340a1.55,1.55,0,0,1-.42-2.2h0A1.55,1.55,0,0,1,501.7,337.43Z" fill="#f9b499"/><polygon points="465.46 602.38 463.64 608.66 472.52 621.56 485.43 617.03 486.38 614.02 487.01 602.38 465.46 602.38" fill="#f9b499"/><path d="M527.14,495.33H622a7.93,7.93,0,0,1,7.93,7.93v1.62A7.93,7.93,0,0,1,622,512.8h-94.9a0,0,0,0,1,0,0V495.33A0,0,0,0,1,527.14,495.33Z" fill="#d1d3d4"/><path d="M400.33,457H709.52a0,0,0,0,1,0,0v23.13a4.55,4.55,0,0,1-4.55,4.55H404.88a4.55,4.55,0,0,1-4.55-4.55V457A0,0,0,0,1,400.33,457Z" fill="#bcbec0"/><ellipse cx="580.53" cy="319.57" rx="13.09" ry="24.23" fill="#f9b499"/><path d="M568.8,308.82s-3.58-7.43,0-13.48c0,0,3.08-6.91,10-2.5,0,0,7.09-3.78,12.52.94a34.66,34.66,0,0,0,11.57,5s12,.71,7.32,13.7c0,0-5.91,10.86-6.85,19.12,0,0-6.08-.44-4.57-6.24l-1.54-10L595,322.6a26.93,26.93,0,0,1-.86,12,14.94,14.94,0,0,1-13.07,10.33,16.61,16.61,0,0,1-1.87,0,12.06,12.06,0,0,1-11-9.56,5.25,5.25,0,0,1,2-5.72,13.22,13.22,0,0,1,14.64-.35s7.68,4.6,7-5.43c0,0,3.53-25.15-10-18.66C581.7,305.23,575.49,297.41,568.8,308.82Z" fill="#2f2e41"/><ellipse cx="577.76" cy="333.33" rx="4.89" ry="3.78" fill="#f9b499"/><ellipse cx="598.74" cy="319.88" rx="5.67" ry="3.78" transform="matrix(0.26, -0.97, 0.97, 0.26, 135.19, 815.79)" fill="#f9b499"/><polygon points="564.51 591.63 570.69 602.84 557.94 612.11 549.29 603.49 548.29 594.15 564.51 591.63" fill="#f9b499"/><path d="M567.34,593.18l-21.22,11.36L510,534.9l-21.22,69.64-23.28-2.16,19.76-117.69H611.69s-7.39,16.74-41.26,13.75l-30.85.3Z" fill="#2f2e41"/><path d="M511.75,531.91a43.58,43.58,0,0,1,.37-12.69,30.89,30.89,0,0,1,4.65-11.91,20.26,20.26,0,0,1,10.16-7.7,27.86,27.86,0,0,1,12.65-.87c-1.06,0-2.11,0-3.16,0s-2.11.06-3.14.25l-1.55.2-1.53.33a10.83,10.83,0,0,0-1.51.41c-.49.17-1,.29-1.47.49a20,20,0,0,0-9.55,7.54A31.65,31.65,0,0,0,513,519.39a48,48,0,0,0-1,6.21A53.09,53.09,0,0,0,511.75,531.91Z" opacity="0.2"/><path d="M575.24,614l-42.4,19.55s-6.57-5.79,1-14.48l11.92-15.35a2,2,0,0,1,2.12-.67c3.66,1.12,12.55,4.34,13.19,4.43.13,0,4.52-5.4,7-8.06a1.39,1.39,0,0,1,2.24.27l6.08,10.89A2.45,2.45,0,0,1,575.24,614Z" fill="#6c3fc6"/><path d="M482.72,631.38,433.06,624s-2.32-9.18,9.68-12.64l19.95-6.93a2.07,2.07,0,0,1,2.3.64c2.58,3.2,8.51,11.43,9.05,11.88.17.15,7.31-2.24,11.14-3.2a1.47,1.47,0,0,1,1.83,1.58l-1.22,13.55A2.72,2.72,0,0,1,482.72,631.38Z" fill="#6c3fc6"/><rect x="387.72" y="449.15" width="334.92" height="7.85" rx="3.56" fill="#d1d3d4"/><circle cx="301.97" cy="198.73" r="4.75" fill="#2f2e41"/><circle cx="356.14" cy="159.08" r="4.75" fill="#2f2e41"/><circle cx="393.25" cy="140.44" r="4.75" fill="#6c3fc6"/><circle cx="335.03" cy="184.48" r="4.75" fill="#6c3fc6"/><path d="M348.7,243.77a31.71,31.71,0,1,0,2.46,56.34l-8.73-13.46a15.71,15.71,0,1,1-1.63-28.85Z" fill="#6c3fc6"/><circle cx="379.22" cy="363.63" r="2.58" fill="#6c3fc6"/><circle cx="405.4" cy="349.29" r="2.58" fill="#6c3fc6"/><circle cx="426.04" cy="364.57" r="2.58" fill="#6c3fc6"/><circle cx="450.92" cy="349.29" r="2.58" fill="#6c3fc6"/><circle cx="485.71" cy="356.48" r="2.58" fill="#6c3fc6"/><path d="M320.14,535.9s-23.38-45.1-46.76-38a17.8,17.8,0,0,0-12.18,13.65C259.21,522,264.68,538.28,320.14,535.9Z" fill="#6c3fc6"/><path d="M320.14,535.9s-23.38-45.1-46.76-38a17.8,17.8,0,0,0-12.18,13.65C259.21,522,264.68,538.28,320.14,535.9Z" fill="#fff" opacity="0.4"/><path d="M320.14,535.9c-5.28-1.47-10.47-3.22-15.61-5.11s-10.2-4-15.19-6.27c-2.49-1.17-4.93-2.41-7.35-3.71a76.75,76.75,0,0,1-7.07-4.23,46.27,46.27,0,0,1-6.46-5.14c-1.9-1.95-3.71-4.26-4.16-7a14,14,0,0,0,4.54,6.61,45.56,45.56,0,0,0,6.54,4.82,125.75,125.75,0,0,0,14.42,7.65c4.92,2.35,10,4.43,15,6.49,2.53,1,5.08,2,7.63,3S317.57,534.94,320.14,535.9Z" opacity="0.2"/><path d="M276.92,498.87a28.47,28.47,0,0,1,2.84,9.6,25.72,25.72,0,0,1,.09,5,17.37,17.37,0,0,1-1.17,4.9,39.31,39.31,0,0,0,.31-4.93c0-1.64-.12-3.26-.32-4.89s-.45-3.24-.74-4.85S277.3,500.5,276.92,498.87Z" opacity="0.2"/><path d="M272.22,514.21a5.6,5.6,0,0,1-1.88,2.61,9.24,9.24,0,0,1-2.86,1.55,12.18,12.18,0,0,1-3.16.6c-.53,0-1.07,0-1.6,0s-1.05-.12-1.57-.23c.52-.14,1-.22,1.55-.31l1.51-.29a27.85,27.85,0,0,0,2.92-.79,14.41,14.41,0,0,0,2.72-1.22A9.67,9.67,0,0,0,272.22,514.21Z" opacity="0.2"/><path d="M292.15,501.85a32.94,32.94,0,0,1,.85,11.33,29,29,0,0,1-1.17,5.61,17.79,17.79,0,0,1-2.63,5.06,32.4,32.4,0,0,0,1.81-5.29,48.65,48.65,0,0,0,.89-5.49c.18-1.85.26-3.71.3-5.58S292.23,503.75,292.15,501.85Z" opacity="0.2"/><path d="M284.24,521.43a12.14,12.14,0,0,1-2.86,3.33,16,16,0,0,1-3.77,2.36,16.59,16.59,0,0,1-4.25,1.24,14.74,14.74,0,0,1-2.2.19,20,20,0,0,1-2.19-.13c1.44-.27,2.84-.52,4.21-.9a25.73,25.73,0,0,0,4-1.41,23.74,23.74,0,0,0,3.7-2A24.32,24.32,0,0,0,284.24,521.43Z" opacity="0.2"/><path d="M304.05,512.54a23.22,23.22,0,0,1,.81,8.67,15,15,0,0,1-1,4.31,7.87,7.87,0,0,1-2.56,3.56,11.35,11.35,0,0,0,1.75-3.83,24,24,0,0,0,.7-4.15c.14-1.4.2-2.82.23-4.25Z" opacity="0.2"/><path d="M295.41,526.63a10.88,10.88,0,0,1-1.13,2.59,14.18,14.18,0,0,1-1.63,2.31,12.28,12.28,0,0,1-2.08,1.93,7,7,0,0,1-2.58,1.22,31.78,31.78,0,0,0,3.83-3.87C293,529.45,294.12,528,295.41,526.63Z" opacity="0.2"/><polygon points="294.82 586.71 297.19 626.85 340.63 626.85 343.7 586.71 294.82 586.71" fill="#2f2e41"/><path d="M333.31,504.78s-17.47,18.65-14.05,74.14" fill="none" stroke="#2f2e41" stroke-miterlimit="10"/><path d="M320.62,539.5s19.11-47.07,43.05-42.14a17.8,17.8,0,0,1,13.39,12.46C380,520,376.06,536.74,320.62,539.5Z" fill="#6c3fc6"/><path d="M320,536.75s16.93-47.89-4.26-60.09a17.8,17.8,0,0,0-18.28.45C288.54,482.77,280.38,497.91,320,536.75Z" fill="#6c3fc6"/><path d="M319.65,537.13c-2.53-4.85-4.81-9.83-6.95-14.88s-4.05-10.17-5.8-15.37q-1.27-3.92-2.32-7.9a75.9,75.9,0,0,1-1.75-8.05,45.39,45.39,0,0,1-.66-8.23c.12-2.72.56-5.62,2.26-7.82a13.93,13.93,0,0,0-1.72,7.83,45.7,45.7,0,0,0,1,8.07,125.27,125.27,0,0,0,4.28,15.76c1.65,5.19,3.58,10.3,5.55,15.4,1,2.55,2,5.08,3,7.61S318.59,534.61,319.65,537.13Z" opacity="0.2"/><path d="M317.12,480.28a28.62,28.62,0,0,1-5.06,8.64,26.12,26.12,0,0,1-3.62,3.51,17.09,17.09,0,0,1-4.37,2.49,40.24,40.24,0,0,0,3.81-3.14c1.16-1.15,2.29-2.32,3.34-3.57s2.06-2.55,3-3.87S316.19,481.67,317.12,480.28Z" opacity="0.2"/><path d="M303.1,487a5.6,5.6,0,0,1-3.19.42,9.39,9.39,0,0,1-3.09-1,12.44,12.44,0,0,1-2.6-1.89c-.38-.38-.73-.78-1.08-1.18s-.63-.86-.9-1.31c.45.29.87.61,1.28.92l1.25.9a24.75,24.75,0,0,0,2.57,1.59,14.44,14.44,0,0,0,2.75,1.16A9.91,9.91,0,0,0,303.1,487Z" opacity="0.2"/><path d="M325.36,493.43a32.72,32.72,0,0,1-7.69,8.36,28.07,28.07,0,0,1-4.89,3,17.72,17.72,0,0,1-5.49,1.54,33.07,33.07,0,0,0,5.1-2.3,46.4,46.4,0,0,0,4.61-3.1c1.48-1.13,2.89-2.34,4.28-3.59S324,494.78,325.36,493.43Z" opacity="0.2"/><path d="M305.67,501a12,12,0,0,1-4.4.2A15.94,15.94,0,0,1,297,500.1a16.27,16.27,0,0,1-3.82-2.25,14.52,14.52,0,0,1-1.65-1.48c-.5-.54-1-1.1-1.4-1.68,1.18.86,2.32,1.72,3.54,2.45a25.7,25.7,0,0,0,12,3.9Z" opacity="0.2"/><path d="M326.08,509a23.32,23.32,0,0,1-5.77,6.52,15.36,15.36,0,0,1-3.82,2.23,8,8,0,0,1-4.35.57,11.29,11.29,0,0,0,4-1.35,23.17,23.17,0,0,0,3.51-2.32c1.12-.85,2.2-1.78,3.26-2.73Z" opacity="0.2"/><path d="M309.89,512.38a11.25,11.25,0,0,1-2.66.94,15.47,15.47,0,0,1-2.8.39,12.94,12.94,0,0,1-2.84-.2,7.26,7.26,0,0,1-2.65-1,32.2,32.2,0,0,0,5.45.15C306.19,512.55,308,512.38,309.89,512.38Z" opacity="0.2"/><g opacity="0.2"><path d="M320.62,539.5c2.47-1.19,4.94-2.37,7.38-3.6s4.89-2.42,7.32-3.68c4.85-2.51,9.68-5.06,14.36-7.85a125.37,125.37,0,0,0,13.66-9,46.56,46.56,0,0,0,6.07-5.41,13.92,13.92,0,0,0,3.9-7c-.19,2.77-1.78,5.24-3.5,7.36a45.87,45.87,0,0,1-5.95,5.71,75.55,75.55,0,0,1-6.65,4.87c-2.28,1.52-4.61,3-7,4.37-4.76,2.73-9.6,5.3-14.55,7.65S325.74,537.55,320.62,539.5Z"/><path d="M360.23,498.64c-.22,1.65-.39,3.3-.55,4.93s-.26,3.27-.29,4.91,0,3.26.13,4.89a39.51,39.51,0,0,0,.76,4.88,17.26,17.26,0,0,1-1.61-4.76,25.76,25.76,0,0,1-.38-5A28.55,28.55,0,0,1,360.23,498.64Z"/><path d="M366.33,513.47a9.66,9.66,0,0,0,2.54,1.68,14.65,14.65,0,0,0,2.82,1,26.09,26.09,0,0,0,3,.51l1.53.16c.52,0,1,.07,1.57.16-.51.16-1,.27-1.55.38s-1.05.13-1.59.16a11.94,11.94,0,0,1-3.2-.3,9.14,9.14,0,0,1-3-1.29A5.55,5.55,0,0,1,366.33,513.47Z"/><path d="M345.34,503c.1,1.89.28,3.76.47,5.62s.46,3.7.82,5.53a50,50,0,0,0,1.39,5.38,33.61,33.61,0,0,0,2.29,5.1,17.87,17.87,0,0,1-3.09-4.79,28.63,28.63,0,0,1-1.67-5.48A33.1,33.1,0,0,1,345.34,503Z"/><path d="M355,521.77a24.82,24.82,0,0,0,3.6,2.33,25.12,25.12,0,0,0,3.88,1.68,25.8,25.8,0,0,0,4.09,1c1.4.25,2.82.37,4.28.51-.71.14-1.44.25-2.17.33a16.85,16.85,0,0,1-6.56-.84,15.65,15.65,0,0,1-4-2A12,12,0,0,1,355,521.77Z"/><path d="M334.48,514.75l.45,4.29c.16,1.42.35,2.83.63,4.21a22.27,22.27,0,0,0,1.08,4.06,11.46,11.46,0,0,0,2.09,3.66,7.92,7.92,0,0,1-2.88-3.31,15.34,15.34,0,0,1-1.38-4.2A23.4,23.4,0,0,1,334.48,514.75Z"/><path d="M344.38,528c1.42,1.26,2.66,2.58,4,3.82a30.9,30.9,0,0,0,4.17,3.5,7,7,0,0,1-2.68-1,13.14,13.14,0,0,1-2.26-1.73,15.64,15.64,0,0,1-1.83-2.15A11.45,11.45,0,0,1,344.38,528Z"/><path d="M332.26,534.18c1.17.63,2.18,1.3,3.22,1.91.52.33,1,.61,1.58.91l1.67.9a5.68,5.68,0,0,1-3.81-.86,7.64,7.64,0,0,1-1.54-1.23A5.32,5.32,0,0,1,332.26,534.18Z"/></g><path d="M319.3,576.79s21.08-57.34,50.69-38a11,11,0,0,1,4.37,5.53C377.45,553.07,379.28,575.28,319.3,576.79Z" fill="#6c3fc6"/><path d="M319.3,576.79s21.08-57.34,50.69-38a11,11,0,0,1,4.37,5.53C377.45,553.07,379.28,575.28,319.3,576.79Z" fill="#fff" opacity="0.4"/><path d="M319.69,575.78c4.8-2.29,9.63-4.53,14.37-6.92s9.48-4.81,14.07-7.47a127,127,0,0,0,13.37-8.57,51.91,51.91,0,0,0,6-5.16,20.24,20.24,0,0,0,4.54-6.44A19.32,19.32,0,0,1,367.9,548a50.64,50.64,0,0,1-5.88,5.46,111.93,111.93,0,0,1-13.35,8.86c-4.66,2.59-9.4,5-14.24,7.27-2.43,1.11-4.86,2.18-7.31,3.22S322.18,574.84,319.69,575.78Z" opacity="0.2"/><path d="M358.82,535.31c.05,3-.08,5.84-.11,8.72,0,1.44,0,2.88.06,4.31a12.65,12.65,0,0,0,.78,4.21,8.33,8.33,0,0,1-1.63-4.11,26.29,26.29,0,0,1-.31-4.42A34.66,34.66,0,0,1,358.82,535.31Z" opacity="0.2"/><path d="M343.7,540l.65,5.24c.23,1.74.47,3.47.79,5.18a39.23,39.23,0,0,0,1.16,5.07,16.08,16.08,0,0,0,2.15,4.74,11.41,11.41,0,0,1-3-4.45,25.86,25.86,0,0,1-1.44-5.16A37.1,37.1,0,0,1,343.7,540Z" opacity="0.2"/><path d="M355,560.27c1.06.61,2.12,1.16,3.19,1.66s2.16,1,3.28,1.35,2.24.75,3.39,1,2.32.54,3.51.84a15.56,15.56,0,0,1-7.27-.84,16.28,16.28,0,0,1-3.32-1.64A11.47,11.47,0,0,1,355,560.27Z" opacity="0.2"/><path d="M365.35,552.55a51.36,51.36,0,0,1,5.14,1.15c1.69.45,3.32.88,5.09,1.21a7.27,7.27,0,0,1-2.7.29,13.93,13.93,0,0,1-2.66-.43,15.8,15.8,0,0,1-2.53-.89A11.29,11.29,0,0,1,365.35,552.55Z" opacity="0.2"/><path d="M333.31,550.85c.29,3,.49,6,.89,8.88a32.44,32.44,0,0,0,.88,4.3,7.91,7.91,0,0,0,2.09,3.79,6.36,6.36,0,0,1-2.9-3.5,19.17,19.17,0,0,1-1.16-4.43A28.84,28.84,0,0,1,333.31,550.85Z" opacity="0.2"/><path d="M341.72,565.51c1.71,1.25,3.24,2.61,4.83,3.89.78.66,1.58,1.29,2.39,1.89a16.08,16.08,0,0,0,2.62,1.6,6.72,6.72,0,0,1-3.06-.87,14.4,14.4,0,0,1-2.65-1.77,20.44,20.44,0,0,1-2.27-2.19A15.15,15.15,0,0,1,341.72,565.51Z" opacity="0.2"/><path d="M329.86,571.3c1.25.68,2.33,1.43,3.45,2.15.55.37,1.11.71,1.67,1.07s1.13.69,1.73,1.09a6.79,6.79,0,0,1-4-1.24,9.15,9.15,0,0,1-1.62-1.35A6.07,6.07,0,0,1,329.86,571.3Z" opacity="0.2"/><path d="M317.7,577.08s-21.29-58.58-51.19-38.83a11.2,11.2,0,0,0-4.41,5.64C259,552.85,257.13,575.54,317.7,577.08Z" fill="#6c3fc6"/><path d="M317.31,576.05q-3.78-1.45-7.51-3c-2.49-1.06-4.95-2.16-7.4-3.3-4.9-2.28-9.69-4.78-14.4-7.44a112.9,112.9,0,0,1-13.48-9,50.38,50.38,0,0,1-5.92-5.58,19.58,19.58,0,0,1-4.17-6.92A20.81,20.81,0,0,0,269,547.3a51.46,51.46,0,0,0,6.05,5.27,127.94,127.94,0,0,0,13.51,8.77c4.64,2.72,9.41,5.2,14.22,7.63S312.45,573.7,317.31,576.05Z" opacity="0.2"/><path d="M277.79,534.71A36.08,36.08,0,0,1,279,543.6a28.5,28.5,0,0,1-.31,4.51,8.75,8.75,0,0,1-1.65,4.21,13,13,0,0,0,.8-4.3c.06-1.47.08-2.93.06-4.41C277.87,540.66,277.74,537.71,277.79,534.71Z" opacity="0.2"/><path d="M293.06,539.53a38.25,38.25,0,0,1-.36,10.84,25.59,25.59,0,0,1-1.45,5.27,11.58,11.58,0,0,1-3,4.56,16.46,16.46,0,0,0,2.18-4.84,43.18,43.18,0,0,0,1.18-5.18c.31-1.75.56-3.52.79-5.29Z" opacity="0.2"/><path d="M281.62,560.2a11.51,11.51,0,0,1-2.8,2.45,16.63,16.63,0,0,1-3.35,1.67,15.81,15.81,0,0,1-7.36.88c1.21-.3,2.4-.53,3.56-.85s2.3-.66,3.42-1.06,2.22-.88,3.31-1.38S280.55,560.83,281.62,560.2Z" opacity="0.2"/><path d="M271.2,552.32a12.3,12.3,0,0,1-2.36,1.35,17.25,17.25,0,0,1-2.56.9,14.26,14.26,0,0,1-2.69.45,7.57,7.57,0,0,1-2.72-.29c1.79-.33,3.43-.77,5.13-1.22A49.89,49.89,0,0,1,271.2,552.32Z" opacity="0.2"/><path d="M303.55,550.58a29.68,29.68,0,0,1,.2,9.22,19,19,0,0,1-1.16,4.53,6.51,6.51,0,0,1-2.93,3.58,8.13,8.13,0,0,0,2.12-3.87,30.74,30.74,0,0,0,.88-4.39C303.08,556.67,303.26,553.64,303.55,550.58Z" opacity="0.2"/><path d="M295.06,565.55a15.1,15.1,0,0,1-1.88,2.6,21.94,21.94,0,0,1-2.28,2.24,14.78,14.78,0,0,1-2.68,1.8,6.8,6.8,0,0,1-3.1.91,15.71,15.71,0,0,0,2.65-1.64c.83-.61,1.63-1.25,2.42-1.92C291.8,568.23,293.34,566.83,295.06,565.55Z" opacity="0.2"/><path d="M307,571.47a6.61,6.61,0,0,1-1.24,1.75,10.12,10.12,0,0,1-1.63,1.37,6.93,6.93,0,0,1-4.06,1.29c.61-.41,1.2-.74,1.76-1.11s1.14-.71,1.69-1.1C304.68,572.94,305.77,572.17,307,571.47Z" opacity="0.2"/><path d="M325.05,564.16a39.1,39.1,0,0,1,.55,4.13l.2,2,.26,2.08a6.91,6.91,0,0,1-1.56-4,10.29,10.29,0,0,1,0-2.15A7.37,7.37,0,0,1,325.05,564.16Z" opacity="0.2"/><path d="M345,447.12c-5.86,1-12.45,5.37-15.55,19a57,57,0,0,0-1.09,17.67l2.17,24.94s48.15-28.32,31.3-53.76C358.15,449.34,351.65,446,345,447.12Z" fill="#6c3fc6"/><path d="M355,448.77c-1.49,2.28-3,4.58-4.32,6.94s-2.74,4.7-4,7.09c-2.58,4.79-5,9.66-7.13,14.66A133.72,133.72,0,0,0,334,492.75l-1.09,3.92c-.38,1.31-.59,2.65-.9,4-.69,2.64-.93,5.35-1.41,8a82.07,82.07,0,0,1,2.58-16.17,118.48,118.48,0,0,1,5.4-15.5,150.75,150.75,0,0,1,7.4-14.63A122.2,122.2,0,0,1,355,448.77Z" opacity="0.2"/><path d="M340.78,448.48a25.93,25.93,0,0,0,2.57,6.35,16,16,0,0,0,2,2.74,24.63,24.63,0,0,0,2.47,2.42,9.34,9.34,0,0,1-3.08-1.81,11.23,11.23,0,0,1-1.28-1.3,14.21,14.21,0,0,1-1-1.5,12.73,12.73,0,0,1-1.35-3.34A10.45,10.45,0,0,1,340.78,448.48Z" opacity="0.2"/><path d="M332.81,456.71c.33,1.5.74,3,1.18,4.4a26,26,0,0,0,1.64,4.14,16.6,16.6,0,0,0,2.42,3.66,13.19,13.19,0,0,0,3.56,2.67,9.09,9.09,0,0,1-4.17-2.05,13.37,13.37,0,0,1-2.8-3.79,18.82,18.82,0,0,1-1.83-9Z" opacity="0.2"/><path d="M364.37,460a24,24,0,0,1-9.16,4.89,22.09,22.09,0,0,1-5.17.86,17.71,17.71,0,0,1-5.19-.5,37.59,37.59,0,0,0,5.11-.35,34.92,34.92,0,0,0,5-1.07,46,46,0,0,0,4.79-1.67C361.27,461.49,362.83,460.8,364.37,460Z" opacity="0.2"/><path d="M340.78,476.36a53.84,53.84,0,0,0,5.55,1.09,43.4,43.4,0,0,0,5.57.44,32.25,32.25,0,0,0,5.55-.32l1.39-.2,1.37-.3c.94-.14,1.8-.51,2.75-.71a19.2,19.2,0,0,1-5.35,2.06,23,23,0,0,1-5.73.57A25.76,25.76,0,0,1,340.78,476.36Z" opacity="0.2"/><path d="M328.1,475.09a19.27,19.27,0,0,0,1.77,2.5,14.8,14.8,0,0,0,2.11,2.08,15.83,15.83,0,0,0,2.46,1.66c.87.5,1.81.88,2.77,1.33a8.59,8.59,0,0,1-3.12-.55,9.29,9.29,0,0,1-2.81-1.58,9.45,9.45,0,0,1-2.11-2.44A7.41,7.41,0,0,1,328.1,475.09Z" opacity="0.2"/><path d="M334.54,489.24c1.72.33,3.45.54,5.16.73a49.42,49.42,0,0,0,5.15.23,35.1,35.1,0,0,0,5.12-.4,36.62,36.62,0,0,0,5.06-1.17,17.16,17.16,0,0,1-4.89,2,22.86,22.86,0,0,1-5.28.66A25,25,0,0,1,334.54,489.24Z" opacity="0.2"/><path d="M329.1,492a10.2,10.2,0,0,1,2,1.81,11.39,11.39,0,0,1,1.54,2.23,4.42,4.42,0,0,1-2.37-1.5A4.7,4.7,0,0,1,329.1,492Z" opacity="0.2"/><path d="M331.36,502.31c2.15-.75,4.31-1.24,6.46-1.78s4.29-1,6.47-1.63a11.32,11.32,0,0,1-3,1.68,21.74,21.74,0,0,1-3.24,1,27,27,0,0,1-3.33.58A19.16,19.16,0,0,1,331.36,502.31Z" opacity="0.2"/><rect x="293.41" y="578.92" width="51.79" height="11.19" fill="#2f2e41"/><rect x="293.41" y="578.92" width="51.79" height="11.19" opacity="0.2"/></svg>